# xmcd CD database file
#
# Track frame offsets:
#	150
#	12460
#	23287
#	33512
#	46022
#	54472
#	65652
#	80250
#	92935
#	105445
#	118415
#	130990
#	146407
#	162627
#
# Disc length: 2321 seconds
#
# Revision: 0
# Processed by: cddbd v1.4PL0 Copyright (c) Steve Scherf et al.
# Submitted via: NeoAudio 1.5.7
#
DISCID=b8090f0e
DTITLE=Smokey Midnight Gang - Fannie Brown
DYEAR=1900
DGENRE=Jazz
TTITLE0=Jump
TTITLE1=FannieBrown Got Married
TTITLE2=G-string Boogie
TTITLE3=Too Much Trouble Blues
TTITLE4=Flying Dutchman
TTITLE5=Dive Bomber
TTITLE6=I Love Her
TTITLE7=Pretty Baby
TTITLE8=Block Buster Boogie
TTITLE9=Boodelee Boop
TTITLE10=Worried Life Blues
TTITLE11=Honey Groove Blues
TTITLE12=Dogs and Women
TTITLE13=Solo Flight
EXTD=
EXTT0=
EXTT1=
EXTT2=
EXTT3=
EXTT4=
EXTT5=
EXTT6=
EXTT7=
EXTT8=
EXTT9=
EXTT10=
EXTT11=
EXTT12=
EXTT13=
PLAYORDER=
